<?xml version="1.0" standalone="no"?>
<!DOCTYPE svg PUBLIC "-//W3C//DTD SVG 20010904//EN"
 "http://www.w3.org/TR/2001/REC-SVG-20010904/DTD/svg10.dtd">
<svg version="1.0" xmlns="http://www.w3.org/2000/svg"
 width="1559.000000pt" height="1559.000000pt" viewBox="0 0 1559.000000 1559.000000"
 preserveAspectRatio="xMidYMid meet">
<metadata>
Created by potrace 1.11, written by Peter Selinger 2001-2013
</metadata>
<g transform="translate(0.000000,1559.000000) scale(0.100000,-0.100000)"
fill="#000000" stroke="none">
<path d="M12470 15394 c-344 -18 -521 -45 -925 -139 -897 -210 -1612 -446
-2375 -785 l-185 -82 -315 1 c-430 2 -754 -19 -1135 -75 -1955 -288 -3698
-1395 -4802 -3049 -408 -613 -728 -1315 -911 -2005 -73 -275 -74 -256 5 -175
37 39 153 162 258 275 247 268 808 828 1055 1054 782 717 1470 1220 2092 1532
83 41 227 122 322 178 858 516 1639 773 2571 848 205 16 765 16 960 0 916 -78
1702 -334 2520 -825 953 -571 1658 -1341 2176 -2377 305 -610 464 -1144 551
-1850 21 -168 23 -227 23 -650 0 -487 -3 -545 -51 -880 -141 -992 -608 -2006
-1315 -2855 -122 -147 -423 -449 -587 -591 -507 -437 -1154 -819 -1799 -1063
-477 -179 -937 -282 -1493 -333 -190 -17 -828 -17 -1015 0 -788 72 -1404 248
-2095 598 -1154 584 -1986 1417 -2570 2574 -314 623 -478 1171 -566 1890 -26
208 -31 956 -9 1190 55 591 175 1080 396 1615 59 143 226 487 290 597 22 38
39 71 37 73 -1 2 -73 -83 -158 -187 -703 -863 -1456 -1975 -2032 -3003 -372
-663 -803 -1545 -963 -1971 -48 -128 -142 -485 -219 -836 -250 -1132 -268
-2032 -54 -2676 52 -159 167 -388 255 -511 85 -118 221 -257 338 -344 174
-130 461 -255 703 -307 332 -72 859 -72 1312 0 748 119 1652 422 2502 837
l217 106 168 -75 c538 -242 1009 -395 1543 -502 808 -161 1685 -179 2495 -50
2045 326 3816 1512 4893 3275 439 720 769 1591 906 2389 73 427 91 663 91
1210 0 476 -6 589 -46 900 -100 779 -343 1547 -720 2277 l-99 193 46 107 c319
747 481 1288 570 1909 21 149 30 608 14 745 -54 473 -214 838 -494 1127 -171
177 -320 282 -571 403 -304 147 -686 243 -1110 278 -129 11 -589 21 -695 15z
m1170 -879 c373 -54 646 -192 926 -470 171 -170 258 -307 329 -519 57 -171 77
-309 78 -546 1 -343 -52 -669 -177 -1107 -83 -290 -252 -771 -266 -756 -4 4
-58 85 -121 178 -771 1147 -1851 2030 -3143 2571 l-149 62 49 25 c128 64 489
213 699 287 407 144 829 247 1150 279 61 6 128 13 150 15 77 8 371 -4 475 -19z
m-11610 -9543 c216 -573 556 -1189 930 -1687 539 -718 1177 -1297 1973 -1792
37 -23 67 -46 67 -51 0 -12 -389 -205 -575 -285 -853 -366 -1571 -494 -2150
-381 -297 58 -590 210 -791 409 -245 242 -358 554 -371 1025 -8 290 17 538 91
882 118 546 360 1217 695 1922 34 71 63 127 65 125 2 -2 32 -77 66 -167z"/>
<path d="M8240 12394 c-19 -2 -91 -9 -160 -15 -620 -53 -1168 -207 -1738 -489
-511 -252 -887 -505 -1274 -857 -299 -272 -544 -562 -791 -938 -435 -662 -698
-1338 -802 -2054 -42 -288 -47 -398 -43 -861 4 -406 6 -447 32 -624 91 -643
250 -1134 544 -1681 473 -881 1061 -1506 1886 -2005 733 -442 1464 -680 2271
-740 180 -13 690 -13 870 0 802 59 1532 297 2265 738 572 344 1040 762 1420
1267 199 265 406 606 560 920 250 513 388 983 466 1585 21 168 31 867 14 1065
-59 713 -240 1320 -578 1950 -481 895 -1091 1532 -1947 2035 -183 107 -561
293 -750 368 -458 183 -943 292 -1470 331 -125 10 -687 13 -775 5z m-110
-1749 l0 -435 365 0 365 0 0 435 0 435 475 0 475 0 2 -457 3 -456 130 -22
c777 -133 1235 -537 1345 -1189 85 -507 -31 -952 -329 -1254 -84 -84 -188
-166 -295 -230 -69 -41 -69 -41 -41 -52 354 -135 601 -343 743 -625 180 -361
204 -942 57 -1390 -79 -242 -187 -418 -364 -596 -275 -274 -640 -440 -1121
-508 l-125 -17 -3 -452 -2 -452 -475 0 -475 0 0 435 0 435 -365 0 -365 0 0
-435 0 -435 -475 0 -475 0 0 435 0 435 -505 0 -505 0 0 2980 0 2980 505 0 505
0 0 435 0 435 475 0 475 0 0 -435z"/>
<path d="M8030 8346 l0 -516 268 -2 c682 -7 854 8 1013 88 82 41 160 123 188
198 52 140 49 361 -8 483 -64 136 -173 200 -411 240 -74 12 -200 17 -572 20
l-478 5 0 -516z"/>
<path d="M8148 6743 l-118 -4 0 -548 0 -548 378 -6 c805 -12 1044 28 1201 198
97 106 138 278 111 470 -36 253 -195 377 -545 426 -79 11 -797 19 -1027 12z"/>
</g>
</svg>
